<mxfile host="app.diagrams.net" agent="Mozilla/5.0 (Macintosh; Intel Mac OS X 10_15_7) AppleWebKit/537.36 (KHTML, like Gecko) Chrome/134.0.0.0 Safari/537.36" version="26.1.0">
  <diagram name="第 1 页" id="IOSlcj0WQ3XYKZdlBKR7">
    <mxGraphModel dx="3758" dy="1857" grid="1" gridSize="10" guides="1" tooltips="1" connect="1" arrows="1" fold="1" page="1" pageScale="1" pageWidth="827" pageHeight="1169" math="0" shadow="0">
      <root>
        <mxCell id="0" />
        <mxCell id="1" parent="0" />
        <mxCell id="GVVfsAuIYsKc9ZztxS9y-1" value="STUDENT" style="rounded=0;whiteSpace=wrap;html=1;" parent="1" vertex="1">
          <mxGeometry x="147" y="220" width="120" height="60" as="geometry" />
        </mxCell>
        <mxCell id="GVVfsAuIYsKc9ZztxS9y-2" value="STID" style="ellipse;whiteSpace=wrap;html=1;fontStyle=4" parent="1" vertex="1">
          <mxGeometry x="-13" y="110" width="120" height="80" as="geometry" />
        </mxCell>
        <mxCell id="GVVfsAuIYsKc9ZztxS9y-3" value="FULL_NAME" style="ellipse;whiteSpace=wrap;html=1;" parent="1" vertex="1">
          <mxGeometry x="327" y="110" width="120" height="80" as="geometry" />
        </mxCell>
        <mxCell id="GVVfsAuIYsKc9ZztxS9y-4" value="AGE" style="ellipse;whiteSpace=wrap;html=1;labelBorderColor=none;" parent="1" vertex="1">
          <mxGeometry x="147" y="110" width="120" height="80" as="geometry" />
        </mxCell>
        <mxCell id="GVVfsAuIYsKc9ZztxS9y-5" value="FIRST_NAME" style="ellipse;whiteSpace=wrap;html=1;" parent="1" vertex="1">
          <mxGeometry x="237" width="120" height="80" as="geometry" />
        </mxCell>
        <mxCell id="GVVfsAuIYsKc9ZztxS9y-6" value="LAST_NAME" style="ellipse;whiteSpace=wrap;html=1;" parent="1" vertex="1">
          <mxGeometry x="411" width="120" height="80" as="geometry" />
        </mxCell>
        <mxCell id="GVVfsAuIYsKc9ZztxS9y-15" value="" style="endArrow=none;html=1;rounded=0;entryX=0.5;entryY=1;entryDx=0;entryDy=0;exitX=0.391;exitY=0.011;exitDx=0;exitDy=0;exitPerimeter=0;" parent="1" source="GVVfsAuIYsKc9ZztxS9y-3" target="GVVfsAuIYsKc9ZztxS9y-5" edge="1">
          <mxGeometry width="50" height="50" relative="1" as="geometry">
            <mxPoint x="347" y="270" as="sourcePoint" />
            <mxPoint x="397" y="220" as="targetPoint" />
          </mxGeometry>
        </mxCell>
        <mxCell id="GVVfsAuIYsKc9ZztxS9y-16" value="" style="endArrow=none;html=1;rounded=0;entryX=0.5;entryY=1;entryDx=0;entryDy=0;exitX=0.714;exitY=0.04;exitDx=0;exitDy=0;exitPerimeter=0;" parent="1" source="GVVfsAuIYsKc9ZztxS9y-3" target="GVVfsAuIYsKc9ZztxS9y-6" edge="1">
          <mxGeometry width="50" height="50" relative="1" as="geometry">
            <mxPoint x="347" y="270" as="sourcePoint" />
            <mxPoint x="467" y="80.00000000000023" as="targetPoint" />
          </mxGeometry>
        </mxCell>
        <mxCell id="GVVfsAuIYsKc9ZztxS9y-18" value="" style="endArrow=none;html=1;rounded=0;entryX=0.5;entryY=1;entryDx=0;entryDy=0;exitX=0.25;exitY=0;exitDx=0;exitDy=0;" parent="1" source="GVVfsAuIYsKc9ZztxS9y-1" target="GVVfsAuIYsKc9ZztxS9y-2" edge="1">
          <mxGeometry width="50" height="50" relative="1" as="geometry">
            <mxPoint x="337" y="270" as="sourcePoint" />
            <mxPoint x="387" y="220" as="targetPoint" />
          </mxGeometry>
        </mxCell>
        <mxCell id="GVVfsAuIYsKc9ZztxS9y-19" value="" style="endArrow=none;html=1;rounded=0;entryX=0.5;entryY=1;entryDx=0;entryDy=0;exitX=0.5;exitY=0;exitDx=0;exitDy=0;" parent="1" source="GVVfsAuIYsKc9ZztxS9y-1" target="GVVfsAuIYsKc9ZztxS9y-4" edge="1">
          <mxGeometry width="50" height="50" relative="1" as="geometry">
            <mxPoint x="337" y="270" as="sourcePoint" />
            <mxPoint x="387" y="220" as="targetPoint" />
          </mxGeometry>
        </mxCell>
        <mxCell id="GVVfsAuIYsKc9ZztxS9y-20" value="" style="endArrow=none;html=1;rounded=0;exitX=0.75;exitY=0;exitDx=0;exitDy=0;entryX=0.5;entryY=1;entryDx=0;entryDy=0;" parent="1" source="GVVfsAuIYsKc9ZztxS9y-1" target="GVVfsAuIYsKc9ZztxS9y-3" edge="1">
          <mxGeometry width="50" height="50" relative="1" as="geometry">
            <mxPoint x="337" y="270" as="sourcePoint" />
            <mxPoint x="387" y="220" as="targetPoint" />
          </mxGeometry>
        </mxCell>
        <mxCell id="GVVfsAuIYsKc9ZztxS9y-44" value="" style="endArrow=none;html=1;rounded=0;exitX=0.5;exitY=1;exitDx=0;exitDy=0;entryX=1;entryY=0.5;entryDx=0;entryDy=0;" parent="1" source="GVVfsAuIYsKc9ZztxS9y-1" target="GVVfsAuIYsKc9ZztxS9y-45" edge="1">
          <mxGeometry width="50" height="50" relative="1" as="geometry">
            <mxPoint x="337" y="310" as="sourcePoint" />
            <mxPoint x="207" y="330" as="targetPoint" />
          </mxGeometry>
        </mxCell>
        <mxCell id="GVVfsAuIYsKc9ZztxS9y-45" value="D, T" style="triangle;whiteSpace=wrap;html=1;direction=north;" parent="1" vertex="1">
          <mxGeometry x="167" y="320" width="80" height="60" as="geometry" />
        </mxCell>
        <mxCell id="GVVfsAuIYsKc9ZztxS9y-46" value="&lt;div style=&quot;caret-color: rgb(0, 0, 0); color: rgb(0, 0, 0); font-style: normal; font-variant-caps: normal; font-weight: 400; letter-spacing: normal; orphans: auto; text-align: start; text-indent: 0px; text-transform: none; white-space: normal; widows: auto; word-spacing: 0px; -webkit-text-stroke-width: 0px; text-decoration: none;&quot;&gt;&lt;span style=&quot;font-size: 9.96264pt; font-family: LMRoman10-Regular; color: rgb(0, 0, 0);&quot;&gt;UNDERGRADUATE&lt;/span&gt;&lt;/div&gt;" style="rounded=0;whiteSpace=wrap;html=1;" parent="1" vertex="1">
          <mxGeometry x="237" y="425" width="120" height="60" as="geometry" />
        </mxCell>
        <mxCell id="GVVfsAuIYsKc9ZztxS9y-47" value="&lt;div style=&quot;caret-color: rgb(0, 0, 0); color: rgb(0, 0, 0); font-style: normal; font-variant-caps: normal; font-weight: 400; letter-spacing: normal; orphans: auto; text-align: start; text-indent: 0px; text-transform: none; white-space: normal; widows: auto; word-spacing: 0px; -webkit-text-stroke-width: 0px; text-decoration: none;&quot;&gt;&lt;span style=&quot;font-size: 9.96264pt; font-family: LMRoman10-Regular; color: rgb(0, 0, 0);&quot;&gt;POSTGRADUATE&lt;/span&gt;&lt;/div&gt;" style="rounded=0;whiteSpace=wrap;html=1;" parent="1" vertex="1">
          <mxGeometry x="53" y="425" width="120" height="60" as="geometry" />
        </mxCell>
        <mxCell id="GVVfsAuIYsKc9ZztxS9y-48" value="" style="endArrow=none;html=1;rounded=0;exitX=0;exitY=0.75;exitDx=0;exitDy=0;entryX=0.5;entryY=0;entryDx=0;entryDy=0;" parent="1" source="GVVfsAuIYsKc9ZztxS9y-45" target="GVVfsAuIYsKc9ZztxS9y-46" edge="1">
          <mxGeometry width="50" height="50" relative="1" as="geometry">
            <mxPoint x="337" y="310" as="sourcePoint" />
            <mxPoint x="387" y="260" as="targetPoint" />
          </mxGeometry>
        </mxCell>
        <mxCell id="GVVfsAuIYsKc9ZztxS9y-49" value="" style="endArrow=none;html=1;rounded=0;exitX=0;exitY=0.25;exitDx=0;exitDy=0;entryX=0.5;entryY=0;entryDx=0;entryDy=0;" parent="1" source="GVVfsAuIYsKc9ZztxS9y-45" target="GVVfsAuIYsKc9ZztxS9y-47" edge="1">
          <mxGeometry width="50" height="50" relative="1" as="geometry">
            <mxPoint x="217" y="390" as="sourcePoint" />
            <mxPoint x="117" y="430" as="targetPoint" />
          </mxGeometry>
        </mxCell>
        <mxCell id="GVVfsAuIYsKc9ZztxS9y-51" value="&lt;div style=&quot;caret-color: rgb(0, 0, 0); color: rgb(0, 0, 0); font-style: normal; font-variant-caps: normal; font-weight: 400; letter-spacing: normal; orphans: auto; text-align: start; text-indent: 0px; text-transform: none; white-space: normal; widows: auto; word-spacing: 0px; -webkit-text-stroke-width: 0px; text-decoration: none;&quot;&gt;&lt;span style=&quot;font-size: 9.96264pt; font-family: LMRoman10-Regular; color: rgb(0, 0, 0);&quot;&gt;RESEARCH_TOPIC&lt;/span&gt;&lt;/div&gt;" style="ellipse;whiteSpace=wrap;html=1;" parent="1" vertex="1">
          <mxGeometry x="-123" y="345" width="120" height="80" as="geometry" />
        </mxCell>
        <mxCell id="GVVfsAuIYsKc9ZztxS9y-52" value="&lt;div style=&quot;caret-color: rgb(0, 0, 0); color: rgb(0, 0, 0); font-style: normal; font-variant-caps: normal; font-weight: 400; letter-spacing: normal; orphans: auto; text-align: start; text-indent: 0px; text-transform: none; white-space: normal; widows: auto; word-spacing: 0px; -webkit-text-stroke-width: 0px; text-decoration: none;&quot;&gt;&lt;span style=&quot;font-size: 9.96264pt; font-family: LMRoman10-Regular; color: rgb(0, 0, 0);&quot;&gt;PUBLICATIONS&lt;/span&gt;&lt;/div&gt;" style="ellipse;whiteSpace=wrap;html=1;strokeWidth=3;" parent="1" vertex="1">
          <mxGeometry x="-123" y="479" width="120" height="80" as="geometry" />
        </mxCell>
        <mxCell id="GVVfsAuIYsKc9ZztxS9y-53" value="" style="endArrow=none;html=1;rounded=0;exitX=0;exitY=1;exitDx=0;exitDy=0;entryX=1;entryY=0.5;entryDx=0;entryDy=0;" parent="1" source="GVVfsAuIYsKc9ZztxS9y-47" target="GVVfsAuIYsKc9ZztxS9y-52" edge="1">
          <mxGeometry width="50" height="50" relative="1" as="geometry">
            <mxPoint x="337" y="340" as="sourcePoint" />
            <mxPoint x="397" y="529" as="targetPoint" />
          </mxGeometry>
        </mxCell>
        <mxCell id="GVVfsAuIYsKc9ZztxS9y-54" value="" style="endArrow=none;html=1;rounded=0;exitX=0;exitY=0;exitDx=0;exitDy=0;entryX=1;entryY=0.5;entryDx=0;entryDy=0;" parent="1" source="GVVfsAuIYsKc9ZztxS9y-47" target="GVVfsAuIYsKc9ZztxS9y-51" edge="1">
          <mxGeometry width="50" height="50" relative="1" as="geometry">
            <mxPoint x="337" y="340" as="sourcePoint" />
            <mxPoint x="387" y="290" as="targetPoint" />
          </mxGeometry>
        </mxCell>
        <mxCell id="GVVfsAuIYsKc9ZztxS9y-61" value="&lt;div style=&quot;text-align: start;&quot;&gt;&lt;span style=&quot;font-size: 9.96264pt; font-family: LMRoman10-Regular;&quot;&gt;MENTORED_BY&lt;/span&gt;&lt;/div&gt;" style="shape=rhombus;perimeter=rhombusPerimeter;whiteSpace=wrap;html=1;align=center;" parent="1" vertex="1">
          <mxGeometry x="147" y="505" width="120" height="60" as="geometry" />
        </mxCell>
        <mxCell id="GVVfsAuIYsKc9ZztxS9y-62" value="" style="endArrow=none;html=1;rounded=0;exitX=0.5;exitY=1;exitDx=0;exitDy=0;entryX=1;entryY=0.5;entryDx=0;entryDy=0;" parent="1" source="GVVfsAuIYsKc9ZztxS9y-46" target="GVVfsAuIYsKc9ZztxS9y-61" edge="1">
          <mxGeometry width="50" height="50" relative="1" as="geometry">
            <mxPoint x="267" y="380" as="sourcePoint" />
            <mxPoint x="147" y="540" as="targetPoint" />
          </mxGeometry>
        </mxCell>
        <mxCell id="GVVfsAuIYsKc9ZztxS9y-63" value="" style="endArrow=none;html=1;rounded=0;entryX=0.5;entryY=1;entryDx=0;entryDy=0;exitX=0;exitY=0.5;exitDx=0;exitDy=0;" parent="1" source="GVVfsAuIYsKc9ZztxS9y-61" target="GVVfsAuIYsKc9ZztxS9y-47" edge="1">
          <mxGeometry width="50" height="50" relative="1" as="geometry">
            <mxPoint x="267" y="540" as="sourcePoint" />
            <mxPoint x="317" y="330" as="targetPoint" />
          </mxGeometry>
        </mxCell>
        <mxCell id="GVVfsAuIYsKc9ZztxS9y-64" value="1..2" style="text;strokeColor=none;fillColor=none;align=left;verticalAlign=middle;spacingLeft=4;spacingRight=4;overflow=hidden;points=[[0,0.5],[1,0.5]];portConstraint=eastwest;rotatable=0;whiteSpace=wrap;html=1;" parent="1" vertex="1">
          <mxGeometry x="277" y="495" width="80" height="30" as="geometry" />
        </mxCell>
        <mxCell id="lgFTuL_hFDzXA4JYNcTn-3" value="DESCRIPTION" style="ellipse;whiteSpace=wrap;html=1;" parent="1" vertex="1">
          <mxGeometry x="-393" y="250" width="120" height="80" as="geometry" />
        </mxCell>
        <mxCell id="lgFTuL_hFDzXA4JYNcTn-8" value="&lt;u&gt;COURSE_CODE&lt;/u&gt;" style="ellipse;whiteSpace=wrap;html=1;fontStyle=0" parent="1" vertex="1">
          <mxGeometry x="-393" y="130" width="120" height="80" as="geometry" />
        </mxCell>
        <mxCell id="lgFTuL_hFDzXA4JYNcTn-11" value="" style="endArrow=none;html=1;rounded=0;exitX=1;exitY=0.5;exitDx=0;exitDy=0;entryX=0;entryY=0;entryDx=0;entryDy=15;entryPerimeter=0;" parent="1" source="lgFTuL_hFDzXA4JYNcTn-8" target="JkvVeJaX5kpH-S8z0DiF-18" edge="1">
          <mxGeometry width="50" height="50" relative="1" as="geometry">
            <mxPoint x="-43" y="300" as="sourcePoint" />
            <mxPoint x="-203" y="235" as="targetPoint" />
          </mxGeometry>
        </mxCell>
        <mxCell id="lgFTuL_hFDzXA4JYNcTn-12" value="" style="endArrow=none;html=1;rounded=0;entryX=1;entryY=0.5;entryDx=0;entryDy=0;exitX=0;exitY=0;exitDx=0;exitDy=45;exitPerimeter=0;" parent="1" source="JkvVeJaX5kpH-S8z0DiF-18" target="lgFTuL_hFDzXA4JYNcTn-3" edge="1">
          <mxGeometry width="50" height="50" relative="1" as="geometry">
            <mxPoint x="-203" y="265" as="sourcePoint" />
            <mxPoint x="-193" y="260" as="targetPoint" />
          </mxGeometry>
        </mxCell>
        <mxCell id="lgFTuL_hFDzXA4JYNcTn-13" value="1..*" style="text;strokeColor=none;fillColor=none;align=left;verticalAlign=middle;spacingLeft=4;spacingRight=4;overflow=hidden;points=[[0,0.5],[1,0.5]];portConstraint=eastwest;rotatable=0;whiteSpace=wrap;html=1;" parent="1" vertex="1">
          <mxGeometry x="93" y="220" width="80" height="30" as="geometry" />
        </mxCell>
        <mxCell id="lgFTuL_hFDzXA4JYNcTn-14" value="" style="endArrow=none;html=1;rounded=0;entryX=0;entryY=0.5;entryDx=0;entryDy=0;exitX=1;exitY=0.5;exitDx=0;exitDy=0;" parent="1" source="JkvVeJaX5kpH-S8z0DiF-21" target="GVVfsAuIYsKc9ZztxS9y-1" edge="1">
          <mxGeometry width="50" height="50" relative="1" as="geometry">
            <mxPoint x="87" y="250" as="sourcePoint" />
            <mxPoint x="47" y="240" as="targetPoint" />
          </mxGeometry>
        </mxCell>
        <mxCell id="lgFTuL_hFDzXA4JYNcTn-18" value="" style="endArrow=none;html=1;rounded=0;" parent="1" edge="1">
          <mxGeometry width="50" height="50" relative="1" as="geometry">
            <mxPoint x="-383" y="178.82" as="sourcePoint" />
            <mxPoint x="-283" y="178.82" as="targetPoint" />
          </mxGeometry>
        </mxCell>
        <mxCell id="lgFTuL_hFDzXA4JYNcTn-20" value="ASSIGNMENT" style="rounded=0;whiteSpace=wrap;html=1;" parent="1" vertex="1">
          <mxGeometry x="9" y="594" width="120" height="60" as="geometry" />
        </mxCell>
        <mxCell id="lgFTuL_hFDzXA4JYNcTn-21" value="AID" style="ellipse;whiteSpace=wrap;html=1;fontStyle=0" parent="1" vertex="1">
          <mxGeometry x="-127" y="688" width="120" height="80" as="geometry" />
        </mxCell>
        <mxCell id="lgFTuL_hFDzXA4JYNcTn-22" value="DUE_DATE" style="ellipse;whiteSpace=wrap;html=1;" parent="1" vertex="1">
          <mxGeometry x="9" y="686" width="120" height="80" as="geometry" />
        </mxCell>
        <mxCell id="lgFTuL_hFDzXA4JYNcTn-23" value="DESCRIPTION" style="ellipse;whiteSpace=wrap;html=1;" parent="1" vertex="1">
          <mxGeometry x="153" y="688" width="120" height="80" as="geometry" />
        </mxCell>
        <mxCell id="lgFTuL_hFDzXA4JYNcTn-24" value="" style="endArrow=none;html=1;rounded=0;entryX=0.5;entryY=0;entryDx=0;entryDy=0;exitX=0.25;exitY=1;exitDx=0;exitDy=0;" parent="1" source="lgFTuL_hFDzXA4JYNcTn-20" target="lgFTuL_hFDzXA4JYNcTn-21" edge="1">
          <mxGeometry width="50" height="50" relative="1" as="geometry">
            <mxPoint x="99" y="1219" as="sourcePoint" />
            <mxPoint x="149" y="1169" as="targetPoint" />
          </mxGeometry>
        </mxCell>
        <mxCell id="lgFTuL_hFDzXA4JYNcTn-25" value="" style="endArrow=none;html=1;rounded=0;entryX=0.5;entryY=0;entryDx=0;entryDy=0;exitX=0.5;exitY=1;exitDx=0;exitDy=0;" parent="1" source="lgFTuL_hFDzXA4JYNcTn-20" target="lgFTuL_hFDzXA4JYNcTn-22" edge="1">
          <mxGeometry width="50" height="50" relative="1" as="geometry">
            <mxPoint x="-91" y="959" as="sourcePoint" />
            <mxPoint x="149" y="1169" as="targetPoint" />
          </mxGeometry>
        </mxCell>
        <mxCell id="lgFTuL_hFDzXA4JYNcTn-26" value="" style="endArrow=none;html=1;rounded=0;entryX=0;entryY=0;entryDx=0;entryDy=0;exitX=0.75;exitY=1;exitDx=0;exitDy=0;" parent="1" source="lgFTuL_hFDzXA4JYNcTn-20" target="lgFTuL_hFDzXA4JYNcTn-23" edge="1">
          <mxGeometry width="50" height="50" relative="1" as="geometry">
            <mxPoint x="-101" y="869" as="sourcePoint" />
            <mxPoint x="-101" y="829" as="targetPoint" />
          </mxGeometry>
        </mxCell>
        <mxCell id="lgFTuL_hFDzXA4JYNcTn-28" value="PROFESSOR" style="rounded=0;whiteSpace=wrap;html=1;" parent="1" vertex="1">
          <mxGeometry x="-447" y="594" width="120" height="60" as="geometry" />
        </mxCell>
        <mxCell id="lgFTuL_hFDzXA4JYNcTn-29" value="EMPID" style="ellipse;whiteSpace=wrap;html=1;fontStyle=4" parent="1" vertex="1">
          <mxGeometry x="-607" y="478" width="120" height="80" as="geometry" />
        </mxCell>
        <mxCell id="lgFTuL_hFDzXA4JYNcTn-30" value="SSN" style="ellipse;whiteSpace=wrap;html=1;" parent="1" vertex="1">
          <mxGeometry x="-607" y="674" width="120" height="80" as="geometry" />
        </mxCell>
        <mxCell id="jlfe3Lk1knSKXdA3YteA-2" value="" style="edgeStyle=orthogonalEdgeStyle;rounded=0;orthogonalLoop=1;jettySize=auto;html=1;entryX=0;entryY=0.5;entryDx=0;entryDy=0;endArrow=none;startFill=0;" parent="1" source="lgFTuL_hFDzXA4JYNcTn-31" target="lgFTuL_hFDzXA4JYNcTn-28" edge="1">
          <mxGeometry relative="1" as="geometry" />
        </mxCell>
        <mxCell id="lgFTuL_hFDzXA4JYNcTn-31" value="DEPARTMENT_LOCATION" style="ellipse;whiteSpace=wrap;html=1;" parent="1" vertex="1">
          <mxGeometry x="-657" y="584" width="160" height="80" as="geometry" />
        </mxCell>
        <mxCell id="lgFTuL_hFDzXA4JYNcTn-32" value="BUILDING" style="ellipse;whiteSpace=wrap;html=1;" parent="1" vertex="1">
          <mxGeometry x="-827" y="528" width="120" height="80" as="geometry" />
        </mxCell>
        <mxCell id="lgFTuL_hFDzXA4JYNcTn-33" value="ROOM_NUM" style="ellipse;whiteSpace=wrap;html=1;" parent="1" vertex="1">
          <mxGeometry x="-827" y="634" width="120" height="80" as="geometry" />
        </mxCell>
        <mxCell id="lgFTuL_hFDzXA4JYNcTn-34" value="" style="endArrow=none;html=1;rounded=0;exitX=1;exitY=0.5;exitDx=0;exitDy=0;entryX=0;entryY=0.25;entryDx=0;entryDy=0;" parent="1" source="lgFTuL_hFDzXA4JYNcTn-29" target="lgFTuL_hFDzXA4JYNcTn-28" edge="1">
          <mxGeometry width="50" height="50" relative="1" as="geometry">
            <mxPoint x="-97" y="424" as="sourcePoint" />
            <mxPoint x="-447" y="609" as="targetPoint" />
          </mxGeometry>
        </mxCell>
        <mxCell id="lgFTuL_hFDzXA4JYNcTn-36" value="" style="endArrow=none;html=1;rounded=0;entryX=1;entryY=0.5;entryDx=0;entryDy=0;exitX=0;exitY=0.75;exitDx=0;exitDy=0;" parent="1" source="lgFTuL_hFDzXA4JYNcTn-28" target="lgFTuL_hFDzXA4JYNcTn-30" edge="1">
          <mxGeometry width="50" height="50" relative="1" as="geometry">
            <mxPoint x="-467" y="648" as="sourcePoint" />
            <mxPoint x="-477" y="634" as="targetPoint" />
          </mxGeometry>
        </mxCell>
        <mxCell id="lgFTuL_hFDzXA4JYNcTn-37" value="" style="endArrow=none;html=1;rounded=0;exitX=0.053;exitY=0.279;exitDx=0;exitDy=0;entryX=1;entryY=0.5;entryDx=0;entryDy=0;exitPerimeter=0;" parent="1" source="lgFTuL_hFDzXA4JYNcTn-31" target="lgFTuL_hFDzXA4JYNcTn-32" edge="1">
          <mxGeometry width="50" height="50" relative="1" as="geometry">
            <mxPoint x="-437" y="649" as="sourcePoint" />
            <mxPoint x="-477" y="744" as="targetPoint" />
          </mxGeometry>
        </mxCell>
        <mxCell id="lgFTuL_hFDzXA4JYNcTn-38" value="" style="endArrow=none;html=1;rounded=0;exitX=1;exitY=0.5;exitDx=0;exitDy=0;entryX=0.025;entryY=0.675;entryDx=0;entryDy=0;entryPerimeter=0;" parent="1" source="lgFTuL_hFDzXA4JYNcTn-33" target="lgFTuL_hFDzXA4JYNcTn-31" edge="1">
          <mxGeometry width="50" height="50" relative="1" as="geometry">
            <mxPoint x="-591" y="616" as="sourcePoint" />
            <mxPoint x="-647" y="583" as="targetPoint" />
          </mxGeometry>
        </mxCell>
        <mxCell id="lgFTuL_hFDzXA4JYNcTn-40" value="D,T" style="triangle;whiteSpace=wrap;html=1;direction=north;" parent="1" vertex="1">
          <mxGeometry x="-427" y="774" width="80" height="60" as="geometry" />
        </mxCell>
        <mxCell id="lgFTuL_hFDzXA4JYNcTn-42" value="" style="endArrow=none;html=1;rounded=0;exitX=0.5;exitY=1;exitDx=0;exitDy=0;entryX=1;entryY=0.5;entryDx=0;entryDy=0;" parent="1" source="lgFTuL_hFDzXA4JYNcTn-28" target="lgFTuL_hFDzXA4JYNcTn-40" edge="1">
          <mxGeometry width="50" height="50" relative="1" as="geometry">
            <mxPoint x="-317" y="619" as="sourcePoint" />
            <mxPoint x="-187" y="598" as="targetPoint" />
          </mxGeometry>
        </mxCell>
        <mxCell id="lgFTuL_hFDzXA4JYNcTn-43" value="TUTOR" style="rounded=0;whiteSpace=wrap;html=1;" parent="1" vertex="1">
          <mxGeometry x="-577" y="888" width="120" height="60" as="geometry" />
        </mxCell>
        <mxCell id="lgFTuL_hFDzXA4JYNcTn-44" value="LECTURER" style="rounded=0;whiteSpace=wrap;html=1;" parent="1" vertex="1">
          <mxGeometry x="-447" y="888" width="120" height="60" as="geometry" />
        </mxCell>
        <mxCell id="lgFTuL_hFDzXA4JYNcTn-45" value="DEAN" style="rounded=0;whiteSpace=wrap;html=1;" parent="1" vertex="1">
          <mxGeometry x="-317" y="888" width="120" height="60" as="geometry" />
        </mxCell>
        <mxCell id="lgFTuL_hFDzXA4JYNcTn-46" value="" style="endArrow=none;html=1;rounded=0;entryX=0.25;entryY=0;entryDx=0;entryDy=0;exitX=0.008;exitY=0.991;exitDx=0;exitDy=0;exitPerimeter=0;" parent="1" source="lgFTuL_hFDzXA4JYNcTn-40" target="lgFTuL_hFDzXA4JYNcTn-45" edge="1">
          <mxGeometry width="50" height="50" relative="1" as="geometry">
            <mxPoint x="-347" y="838" as="sourcePoint" />
            <mxPoint x="-147" y="418" as="targetPoint" />
          </mxGeometry>
        </mxCell>
        <mxCell id="lgFTuL_hFDzXA4JYNcTn-49" value="" style="endArrow=none;html=1;rounded=0;exitX=0;exitY=0.5;exitDx=0;exitDy=0;entryX=0.5;entryY=0;entryDx=0;entryDy=0;" parent="1" source="lgFTuL_hFDzXA4JYNcTn-40" target="lgFTuL_hFDzXA4JYNcTn-44" edge="1">
          <mxGeometry width="50" height="50" relative="1" as="geometry">
            <mxPoint x="-197" y="468" as="sourcePoint" />
            <mxPoint x="-147" y="418" as="targetPoint" />
          </mxGeometry>
        </mxCell>
        <mxCell id="lgFTuL_hFDzXA4JYNcTn-50" value="" style="endArrow=none;html=1;rounded=0;exitX=0.033;exitY=0.038;exitDx=0;exitDy=0;entryX=0.75;entryY=0;entryDx=0;entryDy=0;exitPerimeter=0;" parent="1" source="lgFTuL_hFDzXA4JYNcTn-40" target="lgFTuL_hFDzXA4JYNcTn-43" edge="1">
          <mxGeometry width="50" height="50" relative="1" as="geometry">
            <mxPoint x="-147" y="704" as="sourcePoint" />
            <mxPoint x="-61" y="658" as="targetPoint" />
          </mxGeometry>
        </mxCell>
        <mxCell id="lgFTuL_hFDzXA4JYNcTn-52" value="&lt;div style=&quot;text-align: start;&quot;&gt;&lt;font face=&quot;LMRoman10-Regular&quot;&gt;&lt;span style=&quot;font-size: 13.2835px;&quot;&gt;SUPERVISED&lt;/span&gt;&lt;/font&gt;&lt;/div&gt;" style="shape=rhombus;perimeter=rhombusPerimeter;whiteSpace=wrap;html=1;align=center;" parent="1" vertex="1">
          <mxGeometry x="-322" y="706" width="130" height="60" as="geometry" />
        </mxCell>
        <mxCell id="lgFTuL_hFDzXA4JYNcTn-53" value="" style="endArrow=none;html=1;rounded=0;exitX=0.5;exitY=0;exitDx=0;exitDy=0;entryX=0.5;entryY=1;entryDx=0;entryDy=0;" parent="1" source="lgFTuL_hFDzXA4JYNcTn-45" target="lgFTuL_hFDzXA4JYNcTn-52" edge="1">
          <mxGeometry width="50" height="50" relative="1" as="geometry">
            <mxPoint x="-217" y="388" as="sourcePoint" />
            <mxPoint x="-167" y="338" as="targetPoint" />
          </mxGeometry>
        </mxCell>
        <mxCell id="lgFTuL_hFDzXA4JYNcTn-59" value="" style="endArrow=none;html=1;rounded=0;exitX=0.5;exitY=0;exitDx=0;exitDy=0;entryX=1;entryY=1;entryDx=0;entryDy=0;" parent="1" source="lgFTuL_hFDzXA4JYNcTn-52" target="lgFTuL_hFDzXA4JYNcTn-28" edge="1">
          <mxGeometry width="50" height="50" relative="1" as="geometry">
            <mxPoint x="-247" y="608" as="sourcePoint" />
            <mxPoint x="-327" y="608" as="targetPoint" />
          </mxGeometry>
        </mxCell>
        <mxCell id="lgFTuL_hFDzXA4JYNcTn-60" value="0..1" style="text;html=1;align=center;verticalAlign=middle;whiteSpace=wrap;rounded=0;" parent="1" vertex="1">
          <mxGeometry x="-317" y="654" width="60" height="30" as="geometry" />
        </mxCell>
        <mxCell id="lgFTuL_hFDzXA4JYNcTn-61" value="&lt;div style=&quot;text-align: start;&quot;&gt;&lt;font face=&quot;LMRoman10-Regular&quot;&gt;&lt;span style=&quot;font-size: 13.2835px;&quot;&gt;ASSIGNED_BY&lt;/span&gt;&lt;/font&gt;&lt;/div&gt;" style="shape=rhombus;perimeter=rhombusPerimeter;whiteSpace=wrap;html=1;align=center;" parent="1" vertex="1">
          <mxGeometry x="-208" y="594" width="120" height="60" as="geometry" />
        </mxCell>
        <mxCell id="lgFTuL_hFDzXA4JYNcTn-63" value="" style="endArrow=none;html=1;rounded=0;exitX=0;exitY=0.5;exitDx=0;exitDy=0;entryX=1;entryY=0.5;entryDx=0;entryDy=0;" parent="1" source="lgFTuL_hFDzXA4JYNcTn-61" target="lgFTuL_hFDzXA4JYNcTn-28" edge="1">
          <mxGeometry width="50" height="50" relative="1" as="geometry">
            <mxPoint x="177" y="1172" as="sourcePoint" />
            <mxPoint x="-207" y="738" as="targetPoint" />
          </mxGeometry>
        </mxCell>
        <mxCell id="lgFTuL_hFDzXA4JYNcTn-64" value="" style="endArrow=none;html=1;rounded=0;exitX=1;exitY=0.5;exitDx=0;exitDy=0;entryX=0;entryY=0.5;entryDx=0;entryDy=0;" parent="1" source="lgFTuL_hFDzXA4JYNcTn-61" target="lgFTuL_hFDzXA4JYNcTn-20" edge="1">
          <mxGeometry width="50" height="50" relative="1" as="geometry">
            <mxPoint x="163" y="1058" as="sourcePoint" />
            <mxPoint x="213" y="1008" as="targetPoint" />
          </mxGeometry>
        </mxCell>
        <mxCell id="lgFTuL_hFDzXA4JYNcTn-65" value="1..1" style="text;html=1;align=center;verticalAlign=middle;whiteSpace=wrap;rounded=0;" parent="1" vertex="1">
          <mxGeometry x="-67" y="594" width="60" height="30" as="geometry" />
        </mxCell>
        <mxCell id="EyCA_U1JdMu_v6Q1cgwz-1" value="COLLABORATES_WITH" style="shape=rhombus;perimeter=rhombusPerimeter;whiteSpace=wrap;html=1;align=center;" parent="1" vertex="1">
          <mxGeometry x="-457" y="458" width="140" height="60" as="geometry" />
        </mxCell>
        <mxCell id="EyCA_U1JdMu_v6Q1cgwz-2" value="" style="endArrow=none;html=1;rounded=0;exitX=0;exitY=0;exitDx=0;exitDy=0;entryX=0;entryY=0.5;entryDx=0;entryDy=0;" parent="1" source="lgFTuL_hFDzXA4JYNcTn-28" target="EyCA_U1JdMu_v6Q1cgwz-1" edge="1">
          <mxGeometry width="50" height="50" relative="1" as="geometry">
            <mxPoint x="-447" y="584" as="sourcePoint" />
            <mxPoint x="-397" y="534" as="targetPoint" />
          </mxGeometry>
        </mxCell>
        <mxCell id="EyCA_U1JdMu_v6Q1cgwz-3" value="" style="endArrow=none;html=1;rounded=0;exitX=1;exitY=0;exitDx=0;exitDy=0;entryX=1;entryY=0.5;entryDx=0;entryDy=0;" parent="1" source="lgFTuL_hFDzXA4JYNcTn-28" target="EyCA_U1JdMu_v6Q1cgwz-1" edge="1">
          <mxGeometry width="50" height="50" relative="1" as="geometry">
            <mxPoint x="-437" y="604" as="sourcePoint" />
            <mxPoint x="-437" y="467" as="targetPoint" />
          </mxGeometry>
        </mxCell>
        <mxCell id="JkvVeJaX5kpH-S8z0DiF-1" value="Always known" style="text;html=1;align=center;verticalAlign=middle;whiteSpace=wrap;rounded=0;" parent="1" vertex="1">
          <mxGeometry x="437" y="105" width="60" height="30" as="geometry" />
        </mxCell>
        <mxCell id="JkvVeJaX5kpH-S8z0DiF-5" value="0..1&lt;div&gt;first&lt;/div&gt;" style="text;html=1;align=center;verticalAlign=middle;whiteSpace=wrap;rounded=0;" parent="1" vertex="1">
          <mxGeometry x="-457" y="523" width="60" height="30" as="geometry" />
        </mxCell>
        <mxCell id="JkvVeJaX5kpH-S8z0DiF-6" value="0..1&lt;div&gt;second&lt;/div&gt;" style="text;html=1;align=center;verticalAlign=middle;whiteSpace=wrap;rounded=0;" parent="1" vertex="1">
          <mxGeometry x="-343" y="560" width="60" height="30" as="geometry" />
        </mxCell>
        <mxCell id="JkvVeJaX5kpH-S8z0DiF-10" value="undergraduate:&amp;nbsp; age &amp;lt; 22" style="text;html=1;align=center;verticalAlign=middle;whiteSpace=wrap;rounded=0;" parent="1" vertex="1">
          <mxGeometry x="227" y="80" width="60" height="30" as="geometry" />
        </mxCell>
        <mxCell id="JkvVeJaX5kpH-S8z0DiF-14" value="postgraduate:&amp;nbsp; age &amp;gt;= 22" style="text;html=1;align=center;verticalAlign=middle;whiteSpace=wrap;rounded=0;" parent="1" vertex="1">
          <mxGeometry x="137" y="80" width="60" height="30" as="geometry" />
        </mxCell>
        <mxCell id="JkvVeJaX5kpH-S8z0DiF-15" value="Always known" style="text;html=1;align=center;verticalAlign=middle;whiteSpace=wrap;rounded=0;" parent="1" vertex="1">
          <mxGeometry x="-168" y="330" width="60" height="30" as="geometry" />
        </mxCell>
        <mxCell id="JkvVeJaX5kpH-S8z0DiF-16" value="Always known" style="text;html=1;align=center;verticalAlign=middle;whiteSpace=wrap;rounded=0;" parent="1" vertex="1">
          <mxGeometry x="-577" y="754" width="60" height="30" as="geometry" />
        </mxCell>
        <mxCell id="JkvVeJaX5kpH-S8z0DiF-22" value="" style="edgeStyle=orthogonalEdgeStyle;rounded=0;orthogonalLoop=1;jettySize=auto;html=1;endArrow=none;startFill=0;" parent="1" source="JkvVeJaX5kpH-S8z0DiF-18" target="JkvVeJaX5kpH-S8z0DiF-21" edge="1">
          <mxGeometry relative="1" as="geometry" />
        </mxCell>
        <mxCell id="JkvVeJaX5kpH-S8z0DiF-18" value="" style="verticalLabelPosition=bottom;verticalAlign=top;html=1;shape=mxgraph.basic.frame;dx=2.63;whiteSpace=wrap;" parent="1" vertex="1">
          <mxGeometry x="-173" y="220" width="80" height="60" as="geometry" />
        </mxCell>
        <mxCell id="JkvVeJaX5kpH-S8z0DiF-21" value="TAKES" style="shape=rhombus;double=1;perimeter=rhombusPerimeter;whiteSpace=wrap;html=1;align=center;" parent="1" vertex="1">
          <mxGeometry x="-23" y="220" width="120" height="60" as="geometry" />
        </mxCell>
        <mxCell id="JkvVeJaX5kpH-S8z0DiF-32" value="COURSE" style="text;html=1;align=center;verticalAlign=middle;resizable=0;points=[];autosize=1;strokeColor=none;fillColor=none;" parent="1" vertex="1">
          <mxGeometry x="-168" y="235" width="70" height="30" as="geometry" />
        </mxCell>
        <mxCell id="cHJ7KGfF_WjtK8GnCyly-1" value="0..*" style="text;strokeColor=none;fillColor=none;align=left;verticalAlign=middle;spacingLeft=4;spacingRight=4;overflow=hidden;points=[[0,0.5],[1,0.5]];portConstraint=eastwest;rotatable=0;whiteSpace=wrap;html=1;" parent="1" vertex="1">
          <mxGeometry x="-83" y="220" width="80" height="30" as="geometry" />
        </mxCell>
        <mxCell id="dJm4S7W8azrfzeq-bu2E-2" value="&lt;div style=&quot;text-align: start;&quot;&gt;&lt;span style=&quot;font-size: 9.96264pt; font-family: LMRoman10-Regular;&quot;&gt;TEXTBOOK&lt;/span&gt;&lt;/div&gt;" style="rounded=0;whiteSpace=wrap;html=1;" parent="1" vertex="1">
          <mxGeometry x="1103" y="784" width="120" height="60" as="geometry" />
        </mxCell>
        <mxCell id="dJm4S7W8azrfzeq-bu2E-3" value="&lt;div style=&quot;text-align: start;&quot;&gt;&lt;u&gt;&lt;span style=&quot;font-size: 12pt; font-family: STSong;&quot;&gt;&lt;/span&gt;&lt;span style=&quot;font-size: 9.96264pt; font-family: LMRoman10-Regular;&quot;&gt;TITLE&lt;/span&gt;&lt;/u&gt;&lt;/div&gt;" style="ellipse;whiteSpace=wrap;html=1;" parent="1" vertex="1">
          <mxGeometry x="1287" y="654" width="120" height="80" as="geometry" />
        </mxCell>
        <mxCell id="dJm4S7W8azrfzeq-bu2E-4" value="" style="endArrow=none;html=1;rounded=0;entryX=0;entryY=0.5;entryDx=0;entryDy=0;exitX=1;exitY=0.25;exitDx=0;exitDy=0;" parent="1" source="dJm4S7W8azrfzeq-bu2E-2" target="dJm4S7W8azrfzeq-bu2E-3" edge="1">
          <mxGeometry width="50" height="50" relative="1" as="geometry">
            <mxPoint x="1113" y="864" as="sourcePoint" />
            <mxPoint x="1163" y="814" as="targetPoint" />
          </mxGeometry>
        </mxCell>
        <mxCell id="dJm4S7W8azrfzeq-bu2E-5" value="ISBN" style="ellipse;whiteSpace=wrap;html=1;" parent="1" vertex="1">
          <mxGeometry x="1287" y="774" width="120" height="80" as="geometry" />
        </mxCell>
        <mxCell id="dJm4S7W8azrfzeq-bu2E-6" value="&lt;div style=&quot;text-align: start;&quot;&gt;&lt;span style=&quot;font-size: 9.96264pt; font-family: LMRoman10-Regular;&quot;&gt;SUMMARY&lt;/span&gt;&lt;/div&gt;" style="ellipse;whiteSpace=wrap;html=1;" parent="1" vertex="1">
          <mxGeometry x="1287" y="878" width="120" height="80" as="geometry" />
        </mxCell>
        <mxCell id="dJm4S7W8azrfzeq-bu2E-7" value="" style="endArrow=none;html=1;rounded=0;entryX=0;entryY=0.5;entryDx=0;entryDy=0;exitX=1;exitY=0.5;exitDx=0;exitDy=0;" parent="1" source="dJm4S7W8azrfzeq-bu2E-2" target="dJm4S7W8azrfzeq-bu2E-5" edge="1">
          <mxGeometry width="50" height="50" relative="1" as="geometry">
            <mxPoint x="1113" y="864" as="sourcePoint" />
            <mxPoint x="1163" y="814" as="targetPoint" />
          </mxGeometry>
        </mxCell>
        <mxCell id="dJm4S7W8azrfzeq-bu2E-8" value="" style="endArrow=none;html=1;rounded=0;entryX=0;entryY=0.5;entryDx=0;entryDy=0;exitX=1;exitY=0.75;exitDx=0;exitDy=0;" parent="1" source="dJm4S7W8azrfzeq-bu2E-2" target="dJm4S7W8azrfzeq-bu2E-6" edge="1">
          <mxGeometry width="50" height="50" relative="1" as="geometry">
            <mxPoint x="1113" y="864" as="sourcePoint" />
            <mxPoint x="1163" y="814" as="targetPoint" />
          </mxGeometry>
        </mxCell>
        <mxCell id="dJm4S7W8azrfzeq-bu2E-9" value="&lt;div style=&quot;text-align: start;&quot;&gt;&lt;span style=&quot;font-size: 9.96264pt; font-family: LMRoman10-Regular;&quot;&gt;CONTENT&lt;/span&gt;&lt;/div&gt;" style="ellipse;whiteSpace=wrap;html=1;" parent="1" vertex="1">
          <mxGeometry x="1103" y="888" width="120" height="80" as="geometry" />
        </mxCell>
        <mxCell id="dJm4S7W8azrfzeq-bu2E-10" value="" style="endArrow=none;html=1;rounded=0;exitX=0.5;exitY=1;exitDx=0;exitDy=0;entryX=0.5;entryY=0;entryDx=0;entryDy=0;" parent="1" source="dJm4S7W8azrfzeq-bu2E-2" target="dJm4S7W8azrfzeq-bu2E-9" edge="1">
          <mxGeometry width="50" height="50" relative="1" as="geometry">
            <mxPoint x="1113" y="864" as="sourcePoint" />
            <mxPoint x="1163" y="814" as="targetPoint" />
          </mxGeometry>
        </mxCell>
        <mxCell id="dJm4S7W8azrfzeq-bu2E-11" value="&lt;div style=&quot;text-align: start;&quot;&gt;&lt;span style=&quot;font-size: 9.96264pt; font-family: LMRoman10-Regular;&quot;&gt;GENRE&lt;/span&gt;&lt;/div&gt;" style="ellipse;whiteSpace=wrap;html=1;" parent="1" vertex="1">
          <mxGeometry x="1183" y="998" width="120" height="80" as="geometry" />
        </mxCell>
        <mxCell id="dJm4S7W8azrfzeq-bu2E-12" value="&lt;div style=&quot;text-align: start;&quot;&gt;&lt;span style=&quot;font-size: 9.96264pt; font-family: LMRoman10-Regular;&quot;&gt;FORMAT&lt;/span&gt;&lt;/div&gt;" style="ellipse;whiteSpace=wrap;html=1;" parent="1" vertex="1">
          <mxGeometry x="1033" y="998" width="120" height="80" as="geometry" />
        </mxCell>
        <mxCell id="dJm4S7W8azrfzeq-bu2E-13" value="&lt;div style=&quot;caret-color: rgb(0, 0, 0); color: rgb(0, 0, 0); font-style: normal; font-variant-caps: normal; font-weight: 400; letter-spacing: normal; orphans: auto; text-align: start; text-indent: 0px; text-transform: none; white-space: normal; widows: auto; word-spacing: 0px; -webkit-text-stroke-width: 0px; text-decoration: none;&quot;&gt;&lt;span style=&quot;font-size: 9.96264pt; font-family: LMRoman10-Regular; color: rgb(0, 0, 0);&quot;&gt;(digital or physical)&lt;/span&gt;&lt;/div&gt;" style="text;whiteSpace=wrap;html=1;" parent="1" vertex="1">
          <mxGeometry x="1038" y="1078" width="130" height="40" as="geometry" />
        </mxCell>
        <mxCell id="dJm4S7W8azrfzeq-bu2E-14" value="&lt;div style=&quot;caret-color: rgb(0, 0, 0); color: rgb(0, 0, 0); font-style: normal; font-variant-caps: normal; font-weight: 400; letter-spacing: normal; orphans: auto; text-align: start; text-indent: 0px; text-transform: none; white-space: normal; widows: auto; word-spacing: 0px; -webkit-text-stroke-width: 0px; text-decoration: none;&quot;&gt;&lt;span style=&quot;font-size: 12pt; font-family: STSong; color: rgb(0, 0, 0);&quot;&gt;&lt;/span&gt;&lt;span style=&quot;font-size: 9.96264pt; font-family: LMRoman10-Regular; color: rgb(0, 0, 0);&quot;&gt;always known&lt;/span&gt;&lt;/div&gt;" style="text;whiteSpace=wrap;html=1;" parent="1" vertex="1">
          <mxGeometry x="1407" y="794" width="110" height="40" as="geometry" />
        </mxCell>
        <mxCell id="dJm4S7W8azrfzeq-bu2E-15" value="" style="endArrow=none;html=1;rounded=0;entryX=0.5;entryY=0;entryDx=0;entryDy=0;exitX=1;exitY=1;exitDx=0;exitDy=0;" parent="1" source="dJm4S7W8azrfzeq-bu2E-9" target="dJm4S7W8azrfzeq-bu2E-11" edge="1">
          <mxGeometry width="50" height="50" relative="1" as="geometry">
            <mxPoint x="1313" y="1054" as="sourcePoint" />
            <mxPoint x="1363" y="1004" as="targetPoint" />
          </mxGeometry>
        </mxCell>
        <mxCell id="dJm4S7W8azrfzeq-bu2E-16" value="" style="endArrow=none;html=1;rounded=0;exitX=0.5;exitY=0;exitDx=0;exitDy=0;entryX=0;entryY=1;entryDx=0;entryDy=0;" parent="1" source="dJm4S7W8azrfzeq-bu2E-12" target="dJm4S7W8azrfzeq-bu2E-9" edge="1">
          <mxGeometry width="50" height="50" relative="1" as="geometry">
            <mxPoint x="1053" y="1094" as="sourcePoint" />
            <mxPoint x="1363" y="1004" as="targetPoint" />
          </mxGeometry>
        </mxCell>
        <mxCell id="9zUc1laW2esK1LTsunV_-1" value="&lt;div style=&quot;caret-color: rgb(0, 0, 0); color: rgb(0, 0, 0); font-style: normal; font-variant-caps: normal; font-weight: 400; letter-spacing: normal; orphans: auto; text-align: start; text-indent: 0px; text-transform: none; white-space: normal; widows: auto; word-spacing: 0px; -webkit-text-stroke-width: 0px; text-decoration: none;&quot;&gt;&lt;span style=&quot;font-size: 9.96264pt; font-family: LMRoman10-Regular; color: rgb(0, 0, 0);&quot;&gt;REFERENCEBOOK&lt;/span&gt;&lt;/div&gt;" style="rounded=0;whiteSpace=wrap;html=1;" parent="1" vertex="1">
          <mxGeometry x="723" y="754" width="120" height="60" as="geometry" />
        </mxCell>
        <mxCell id="E7AaeJtp-QlESf6AanGt-1" value="unique" style="text;html=1;align=center;verticalAlign=middle;resizable=0;points=[];autosize=1;strokeColor=none;fillColor=none;" parent="1" vertex="1">
          <mxGeometry x="-107" y="766" width="60" height="30" as="geometry" />
        </mxCell>
        <mxCell id="9zUc1laW2esK1LTsunV_-2" value="0..*" style="text;html=1;align=center;verticalAlign=middle;whiteSpace=wrap;rounded=0;" parent="1" vertex="1">
          <mxGeometry x="-271" y="808" width="60" height="30" as="geometry" />
        </mxCell>
        <mxCell id="9zUc1laW2esK1LTsunV_-3" value="O,T" style="triangle;whiteSpace=wrap;html=1;direction=north;" parent="1" vertex="1">
          <mxGeometry x="939" y="784" width="80" height="60" as="geometry" />
        </mxCell>
        <mxCell id="9zUc1laW2esK1LTsunV_-5" value="&lt;div style=&quot;text-align: start;&quot;&gt;&lt;span style=&quot;font-size: 9.96264pt; font-family: LMRoman10-Regular;&quot;&gt;EBOOK&lt;/span&gt;&lt;/div&gt;" style="rounded=0;whiteSpace=wrap;html=1;" parent="1" vertex="1">
          <mxGeometry x="723" y="874" width="120" height="60" as="geometry" />
        </mxCell>
        <mxCell id="9zUc1laW2esK1LTsunV_-6" value="" style="endArrow=none;html=1;rounded=0;entryX=0;entryY=0.5;entryDx=0;entryDy=0;exitX=0.5;exitY=1;exitDx=0;exitDy=0;" parent="1" source="9zUc1laW2esK1LTsunV_-3" target="dJm4S7W8azrfzeq-bu2E-2" edge="1">
          <mxGeometry width="50" height="50" relative="1" as="geometry">
            <mxPoint x="1023" y="969" as="sourcePoint" />
            <mxPoint x="1073" y="919" as="targetPoint" />
          </mxGeometry>
        </mxCell>
        <mxCell id="9zUc1laW2esK1LTsunV_-7" value="" style="endArrow=none;html=1;rounded=0;entryX=1;entryY=0.5;entryDx=0;entryDy=0;exitX=1;exitY=0.5;exitDx=0;exitDy=0;" parent="1" source="9zUc1laW2esK1LTsunV_-1" target="9zUc1laW2esK1LTsunV_-3" edge="1">
          <mxGeometry width="50" height="50" relative="1" as="geometry">
            <mxPoint x="993" y="854" as="sourcePoint" />
            <mxPoint x="1093" y="854" as="targetPoint" />
          </mxGeometry>
        </mxCell>
        <mxCell id="9zUc1laW2esK1LTsunV_-8" value="" style="endArrow=none;html=1;rounded=0;entryX=0;entryY=0.25;entryDx=0;entryDy=0;exitX=1;exitY=0.5;exitDx=0;exitDy=0;" parent="1" source="9zUc1laW2esK1LTsunV_-5" target="9zUc1laW2esK1LTsunV_-3" edge="1">
          <mxGeometry width="50" height="50" relative="1" as="geometry">
            <mxPoint x="853" y="800" as="sourcePoint" />
            <mxPoint x="953" y="854" as="targetPoint" />
          </mxGeometry>
        </mxCell>
        <mxCell id="9zUc1laW2esK1LTsunV_-9" value="&lt;div style=&quot;text-align: start;&quot;&gt;&lt;span style=&quot;font-size: 9.96264pt; font-family: LMRoman10-Regular;&quot;&gt;SUBJECT&lt;/span&gt;&lt;/div&gt;" style="ellipse;whiteSpace=wrap;html=1;" parent="1" vertex="1">
          <mxGeometry x="493" y="744" width="120" height="80" as="geometry" />
        </mxCell>
        <mxCell id="cdJzzCUtb4sgmtcdCid0-3" value="0..*" style="text;html=1;align=center;verticalAlign=middle;whiteSpace=wrap;rounded=0;" parent="1" vertex="1">
          <mxGeometry x="-277" y="600" width="60" height="30" as="geometry" />
        </mxCell>
        <mxCell id="9zUc1laW2esK1LTsunV_-10" value="&lt;div style=&quot;text-align: start;&quot;&gt;&lt;span style=&quot;font-size: 9.96264pt; font-family: LMRoman10-Regular;&quot;&gt;DOWN&lt;/span&gt;&lt;span style=&quot;font-family: LMRoman10-Regular; font-size: 9.96264pt;&quot;&gt;LOAD_LIMIT&lt;/span&gt;&lt;/div&gt;" style="ellipse;whiteSpace=wrap;html=1;" parent="1" vertex="1">
          <mxGeometry x="503" y="864" width="120" height="80" as="geometry" />
        </mxCell>
        <mxCell id="9zUc1laW2esK1LTsunV_-11" value="" style="endArrow=none;html=1;rounded=0;entryX=0;entryY=0.5;entryDx=0;entryDy=0;exitX=1;exitY=0.5;exitDx=0;exitDy=0;" parent="1" source="9zUc1laW2esK1LTsunV_-9" target="9zUc1laW2esK1LTsunV_-1" edge="1">
          <mxGeometry width="50" height="50" relative="1" as="geometry">
            <mxPoint x="633" y="784" as="sourcePoint" />
            <mxPoint x="733" y="838" as="targetPoint" />
          </mxGeometry>
        </mxCell>
        <mxCell id="9zUc1laW2esK1LTsunV_-12" value="" style="endArrow=none;html=1;rounded=0;entryX=0;entryY=0.5;entryDx=0;entryDy=0;exitX=1;exitY=0.5;exitDx=0;exitDy=0;" parent="1" source="9zUc1laW2esK1LTsunV_-10" target="9zUc1laW2esK1LTsunV_-5" edge="1">
          <mxGeometry width="50" height="50" relative="1" as="geometry">
            <mxPoint x="633" y="784" as="sourcePoint" />
            <mxPoint x="733" y="800" as="targetPoint" />
          </mxGeometry>
        </mxCell>
        <mxCell id="9zUc1laW2esK1LTsunV_-17" value="&lt;div style=&quot;text-align: start;&quot;&gt;&lt;span style=&quot;font-size: 9.96264pt; font-family: LMRoman10-Regular;&quot;&gt;RESTRICTED_RSRC&lt;/span&gt;&lt;/div&gt;" style="rounded=0;whiteSpace=wrap;html=1;" parent="1" vertex="1">
          <mxGeometry x="813" y="594" width="126" height="60" as="geometry" />
        </mxCell>
        <mxCell id="9zUc1laW2esK1LTsunV_-18" value="&lt;div style=&quot;caret-color: rgb(0, 0, 0); color: rgb(0, 0, 0); font-style: normal; font-variant-caps: normal; font-weight: 400; letter-spacing: normal; orphans: auto; text-align: start; text-indent: 0px; text-transform: none; white-space: normal; widows: auto; word-spacing: 0px; -webkit-text-stroke-width: 0px; text-decoration: none;&quot;&gt;&lt;span style=&quot;font-size: 9.96264pt; font-family: LMRoman10-Regular; color: rgb(0, 0, 0);&quot;&gt;UNPUBLISHED_RSRC&lt;/span&gt;&lt;/div&gt;" style="rounded=0;whiteSpace=wrap;html=1;" parent="1" vertex="1">
          <mxGeometry x="1094.5" y="463" width="137" height="60" as="geometry" />
        </mxCell>
        <mxCell id="9zUc1laW2esK1LTsunV_-19" value="&lt;span&gt;D,T&lt;/span&gt;" style="triangle;whiteSpace=wrap;html=1;direction=north;" parent="1" vertex="1">
          <mxGeometry x="1123" y="594" width="80" height="59" as="geometry" />
        </mxCell>
        <mxCell id="9zUc1laW2esK1LTsunV_-20" value="&lt;div style=&quot;caret-color: rgb(0, 0, 0); color: rgb(0, 0, 0); font-style: normal; font-variant-caps: normal; font-weight: 400; letter-spacing: normal; orphans: auto; text-align: start; text-indent: 0px; text-transform: none; white-space: normal; widows: auto; word-spacing: 0px; -webkit-text-stroke-width: 0px; text-decoration: none;&quot;&gt;&lt;span style=&quot;font-size: 9.96264pt; font-family: LMRoman10-Regular; color: rgb(0, 0, 0);&quot;&gt;LIBRARY_SECTION&lt;/span&gt;&lt;/div&gt;" style="ellipse;whiteSpace=wrap;html=1;" parent="1" vertex="1">
          <mxGeometry x="783" y="408" width="125" height="80" as="geometry" />
        </mxCell>
        <mxCell id="9zUc1laW2esK1LTsunV_-21" value="&lt;div style=&quot;caret-color: rgb(0, 0, 0); color: rgb(0, 0, 0); font-style: normal; font-variant-caps: normal; font-weight: 400; letter-spacing: normal; orphans: auto; text-align: start; text-indent: 0px; text-transform: none; white-space: normal; widows: auto; word-spacing: 0px; -webkit-text-stroke-width: 0px; text-decoration: none;&quot;&gt;&lt;span style=&quot;font-size: 9.96264pt; font-family: LMRoman10-Regular; color: rgb(0, 0, 0);&quot;&gt;ACCESS_FEE&lt;/span&gt;&lt;/div&gt;" style="ellipse;whiteSpace=wrap;html=1;" parent="1" vertex="1">
          <mxGeometry x="923" y="408" width="120" height="80" as="geometry" />
        </mxCell>
        <mxCell id="9zUc1laW2esK1LTsunV_-22" value="&lt;div style=&quot;caret-color: rgb(0, 0, 0); color: rgb(0, 0, 0); font-style: normal; font-variant-caps: normal; font-weight: 400; letter-spacing: normal; orphans: auto; text-align: start; text-indent: 0px; text-transform: none; white-space: normal; widows: auto; word-spacing: 0px; -webkit-text-stroke-width: 0px; text-decoration: none;&quot;&gt;&lt;span style=&quot;font-size: 12pt; font-family: STSong; color: rgb(0, 0, 0);&quot;&gt;&lt;/span&gt;&lt;span style=&quot;font-size: 9.96264pt; font-family: LMRoman10-Regular; color: rgb(0, 0, 0);&quot;&gt;REVIEW_PERIOD&lt;/span&gt;&lt;/div&gt;" style="ellipse;whiteSpace=wrap;html=1;" parent="1" vertex="1">
          <mxGeometry x="1043" y="258" width="120" height="80" as="geometry" />
        </mxCell>
        <mxCell id="9zUc1laW2esK1LTsunV_-23" value="&lt;div style=&quot;caret-color: rgb(0, 0, 0); color: rgb(0, 0, 0); font-style: normal; font-variant-caps: normal; font-weight: 400; letter-spacing: normal; orphans: auto; text-align: start; text-indent: 0px; text-transform: none; white-space: normal; widows: auto; word-spacing: 0px; -webkit-text-stroke-width: 0px; text-decoration: none;&quot;&gt;&lt;span style=&quot;font-size: 9.96264pt; font-family: LMRoman10-Regular; color: rgb(0, 0, 0);&quot;&gt;AUTHOR_NOTES&lt;/span&gt;&lt;/div&gt;" style="ellipse;whiteSpace=wrap;html=1;" parent="1" vertex="1">
          <mxGeometry x="1203" y="258" width="120" height="80" as="geometry" />
        </mxCell>
        <mxCell id="9zUc1laW2esK1LTsunV_-24" value="" style="endArrow=none;html=1;rounded=0;exitX=0.5;exitY=0;exitDx=0;exitDy=0;entryX=0;entryY=0.5;entryDx=0;entryDy=0;" parent="1" source="dJm4S7W8azrfzeq-bu2E-2" target="9zUc1laW2esK1LTsunV_-19" edge="1">
          <mxGeometry width="50" height="50" relative="1" as="geometry">
            <mxPoint x="893" y="684" as="sourcePoint" />
            <mxPoint x="943" y="634" as="targetPoint" />
          </mxGeometry>
        </mxCell>
        <mxCell id="9zUc1laW2esK1LTsunV_-25" value="" style="endArrow=none;html=1;rounded=0;exitX=0.5;exitY=0;exitDx=0;exitDy=0;entryX=1;entryY=0.5;entryDx=0;entryDy=0;" parent="1" source="9zUc1laW2esK1LTsunV_-19" target="9zUc1laW2esK1LTsunV_-17" edge="1">
          <mxGeometry width="50" height="50" relative="1" as="geometry">
            <mxPoint x="1153" y="824" as="sourcePoint" />
            <mxPoint x="1143" y="730" as="targetPoint" />
          </mxGeometry>
        </mxCell>
        <mxCell id="9zUc1laW2esK1LTsunV_-26" value="" style="endArrow=none;html=1;rounded=0;exitX=1;exitY=0.5;exitDx=0;exitDy=0;entryX=0.5;entryY=1;entryDx=0;entryDy=0;" parent="1" source="9zUc1laW2esK1LTsunV_-19" target="9zUc1laW2esK1LTsunV_-18" edge="1">
          <mxGeometry width="50" height="50" relative="1" as="geometry">
            <mxPoint x="1123" y="700" as="sourcePoint" />
            <mxPoint x="1023" y="634" as="targetPoint" />
          </mxGeometry>
        </mxCell>
        <mxCell id="9zUc1laW2esK1LTsunV_-27" value="" style="endArrow=none;html=1;rounded=0;exitX=0.5;exitY=1;exitDx=0;exitDy=0;entryX=0.25;entryY=0;entryDx=0;entryDy=0;" parent="1" source="9zUc1laW2esK1LTsunV_-20" target="9zUc1laW2esK1LTsunV_-17" edge="1">
          <mxGeometry width="50" height="50" relative="1" as="geometry">
            <mxPoint x="1163" y="700" as="sourcePoint" />
            <mxPoint x="1263" y="634" as="targetPoint" />
          </mxGeometry>
        </mxCell>
        <mxCell id="9zUc1laW2esK1LTsunV_-28" value="" style="endArrow=none;html=1;rounded=0;exitX=0.75;exitY=0;exitDx=0;exitDy=0;entryX=0.5;entryY=1;entryDx=0;entryDy=0;" parent="1" source="9zUc1laW2esK1LTsunV_-17" target="9zUc1laW2esK1LTsunV_-21" edge="1">
          <mxGeometry width="50" height="50" relative="1" as="geometry">
            <mxPoint x="903" y="508" as="sourcePoint" />
            <mxPoint x="993" y="574" as="targetPoint" />
          </mxGeometry>
        </mxCell>
        <mxCell id="9zUc1laW2esK1LTsunV_-29" value="" style="endArrow=none;html=1;rounded=0;exitX=0.25;exitY=0;exitDx=0;exitDy=0;entryX=0.5;entryY=1;entryDx=0;entryDy=0;" parent="1" source="9zUc1laW2esK1LTsunV_-18" target="9zUc1laW2esK1LTsunV_-22" edge="1">
          <mxGeometry width="50" height="50" relative="1" as="geometry">
            <mxPoint x="1053" y="574" as="sourcePoint" />
            <mxPoint x="1083" y="508" as="targetPoint" />
          </mxGeometry>
        </mxCell>
        <mxCell id="9zUc1laW2esK1LTsunV_-30" value="" style="endArrow=none;html=1;rounded=0;exitX=0.75;exitY=0;exitDx=0;exitDy=0;entryX=0;entryY=1;entryDx=0;entryDy=0;" parent="1" source="9zUc1laW2esK1LTsunV_-18" target="9zUc1laW2esK1LTsunV_-23" edge="1">
          <mxGeometry width="50" height="50" relative="1" as="geometry">
            <mxPoint x="1233" y="574" as="sourcePoint" />
            <mxPoint x="1283" y="518" as="targetPoint" />
          </mxGeometry>
        </mxCell>
        <mxCell id="TwGObZi9csG7pn0OmC3V-2" value="exactly one&lt;br&gt;dean" style="text;html=1;align=center;verticalAlign=middle;resizable=0;points=[];autosize=1;strokeColor=none;fillColor=none;" parent="1" vertex="1">
          <mxGeometry x="-297" y="958" width="80" height="40" as="geometry" />
        </mxCell>
        <mxCell id="QvhqTCkZfpV1VSAVor_F-2" value="" style="endArrow=none;html=1;rounded=0;exitX=1;exitY=0.5;exitDx=0;exitDy=0;entryX=0;entryY=0;entryDx=0;entryDy=0;" parent="1" source="GVVfsAuIYsKc9ZztxS9y-46" target="JfbHdIJwmMdXuOYhNymJ-1" edge="1">
          <mxGeometry width="50" height="50" relative="1" as="geometry">
            <mxPoint x="583" y="468" as="sourcePoint" />
            <mxPoint x="513" y="620" as="targetPoint" />
          </mxGeometry>
        </mxCell>
        <mxCell id="QvhqTCkZfpV1VSAVor_F-4" value="" style="endArrow=none;html=1;rounded=0;exitX=0;exitY=0.5;exitDx=0;exitDy=0;entryX=1;entryY=0.5;entryDx=0;entryDy=0;" parent="1" source="9zUc1laW2esK1LTsunV_-17" target="JfbHdIJwmMdXuOYhNymJ-1" edge="1">
          <mxGeometry width="50" height="50" relative="1" as="geometry">
            <mxPoint x="332" y="236" as="sourcePoint" />
            <mxPoint x="633" y="620" as="targetPoint" />
          </mxGeometry>
        </mxCell>
        <mxCell id="QvhqTCkZfpV1VSAVor_F-5" value="&lt;div style=&quot;caret-color: rgb(0, 0, 0); color: rgb(0, 0, 0); font-style: normal; font-variant-caps: normal; font-weight: 400; letter-spacing: normal; orphans: auto; text-align: start; text-indent: 0px; text-transform: none; white-space: normal; widows: auto; word-spacing: 0px; -webkit-text-stroke-width: 0px; text-decoration: none;&quot;&gt;&lt;span style=&quot;font-size: 9.96264pt; font-family: LMRoman10-Regular; color: rgb(0, 0, 0);&quot;&gt;BORROW_DATE&lt;/span&gt;&lt;/div&gt;" style="ellipse;whiteSpace=wrap;html=1;" parent="1" vertex="1">
          <mxGeometry x="463" y="408" width="120" height="80" as="geometry" />
        </mxCell>
        <mxCell id="QvhqTCkZfpV1VSAVor_F-6" value="&lt;div style=&quot;caret-color: rgb(0, 0, 0); color: rgb(0, 0, 0); font-style: normal; font-variant-caps: normal; font-weight: 400; letter-spacing: normal; orphans: auto; text-align: start; text-indent: 0px; text-transform: none; white-space: normal; widows: auto; word-spacing: 0px; -webkit-text-stroke-width: 0px; text-decoration: none;&quot;&gt;&lt;span style=&quot;font-size: 9.96264pt; font-family: LMRoman10-Regular; color: rgb(0, 0, 0);&quot;&gt;RETURN_CONDITION&lt;/span&gt;&lt;/div&gt;" style="ellipse;whiteSpace=wrap;html=1;" parent="1" vertex="1">
          <mxGeometry x="623" y="408" width="140" height="80" as="geometry" />
        </mxCell>
        <mxCell id="QvhqTCkZfpV1VSAVor_F-7" value="" style="endArrow=none;html=1;rounded=0;exitX=0.5;exitY=0;exitDx=0;exitDy=0;entryX=0.5;entryY=1;entryDx=0;entryDy=0;" parent="1" source="JfbHdIJwmMdXuOYhNymJ-1" target="QvhqTCkZfpV1VSAVor_F-5" edge="1">
          <mxGeometry width="50" height="50" relative="1" as="geometry">
            <mxPoint x="543" y="590" as="sourcePoint" />
            <mxPoint x="523" y="600" as="targetPoint" />
          </mxGeometry>
        </mxCell>
        <mxCell id="QvhqTCkZfpV1VSAVor_F-8" value="" style="endArrow=none;html=1;rounded=0;exitX=0.5;exitY=1;exitDx=0;exitDy=0;entryX=1;entryY=0;entryDx=0;entryDy=0;" parent="1" source="QvhqTCkZfpV1VSAVor_F-6" target="JfbHdIJwmMdXuOYhNymJ-1" edge="1">
          <mxGeometry width="50" height="50" relative="1" as="geometry">
            <mxPoint x="333" y="368" as="sourcePoint" />
            <mxPoint x="633" y="588" as="targetPoint" />
          </mxGeometry>
        </mxCell>
        <mxCell id="QvhqTCkZfpV1VSAVor_F-9" value="&lt;div style=&quot;text-align: start;&quot;&gt;&lt;font face=&quot;LMRoman10-Regular&quot;&gt;&lt;span style=&quot;font-size: 13.2835px;&quot;&gt;NEEDS&lt;/span&gt;&lt;/font&gt;&lt;/div&gt;" style="shape=rhombus;perimeter=rhombusPerimeter;whiteSpace=wrap;html=1;align=center;" parent="1" vertex="1">
          <mxGeometry x="233" y="594" width="120" height="60" as="geometry" />
        </mxCell>
        <mxCell id="QvhqTCkZfpV1VSAVor_F-11" value="" style="endArrow=none;html=1;rounded=0;exitX=1;exitY=0.5;exitDx=0;exitDy=0;entryX=0;entryY=0.5;entryDx=0;entryDy=0;" parent="1" source="lgFTuL_hFDzXA4JYNcTn-20" target="QvhqTCkZfpV1VSAVor_F-9" edge="1">
          <mxGeometry width="50" height="50" relative="1" as="geometry">
            <mxPoint x="423" y="648" as="sourcePoint" />
            <mxPoint x="473" y="598" as="targetPoint" />
          </mxGeometry>
        </mxCell>
        <mxCell id="QvhqTCkZfpV1VSAVor_F-12" value="" style="endArrow=none;html=1;rounded=0;exitX=1;exitY=0.5;exitDx=0;exitDy=0;entryX=0;entryY=0.5;entryDx=0;entryDy=0;" parent="1" source="QvhqTCkZfpV1VSAVor_F-9" target="JfbHdIJwmMdXuOYhNymJ-1" edge="1">
          <mxGeometry width="50" height="50" relative="1" as="geometry">
            <mxPoint x="383" y="628.82" as="sourcePoint" />
            <mxPoint x="513" y="635" as="targetPoint" />
          </mxGeometry>
        </mxCell>
        <mxCell id="o9soqaqjYkOeg9e-M-Pd-1" value="0..*" style="text;html=1;align=center;verticalAlign=middle;whiteSpace=wrap;rounded=0;" parent="1" vertex="1">
          <mxGeometry x="166.5" y="594" width="60" height="30" as="geometry" />
        </mxCell>
        <mxCell id="o9soqaqjYkOeg9e-M-Pd-2" value="1..*" style="text;html=1;align=center;verticalAlign=middle;whiteSpace=wrap;rounded=0;" parent="1" vertex="1">
          <mxGeometry x="413" y="590" width="60" height="30" as="geometry" />
        </mxCell>
        <mxCell id="o9soqaqjYkOeg9e-M-Pd-3" value="0..*" style="text;html=1;align=center;verticalAlign=middle;whiteSpace=wrap;rounded=0;" parent="1" vertex="1">
          <mxGeometry x="387" y="540" width="60" height="30" as="geometry" />
        </mxCell>
        <mxCell id="o9soqaqjYkOeg9e-M-Pd-4" value="0..*" style="text;html=1;align=center;verticalAlign=middle;whiteSpace=wrap;rounded=0;" parent="1" vertex="1">
          <mxGeometry x="703" y="588" width="60" height="30" as="geometry" />
        </mxCell>
        <mxCell id="JfbHdIJwmMdXuOYhNymJ-1" value="BORROWS" style="shape=associativeEntity;whiteSpace=wrap;html=1;align=center;" parent="1" vertex="1">
          <mxGeometry x="493" y="594" width="140" height="60" as="geometry" />
        </mxCell>
        <mxCell id="YQZ_UNpDCVC5wECkPHA0-1" value="0..*" style="text;html=1;align=center;verticalAlign=middle;whiteSpace=wrap;rounded=0;" parent="1" vertex="1">
          <mxGeometry x="83" y="495" width="60" height="30" as="geometry" />
        </mxCell>
      </root>
    </mxGraphModel>
  </diagram>
</mxfile>
